<svg version="1.1" id="Layer_1" xmlns:x="ns_extend;" xmlns:i="ns_ai;" xmlns:graph="ns_graphs;" xmlns="http://www.w3.org/2000/svg" xmlns:xlink="http://www.w3.org/1999/xlink" x="0px" y="0px" viewBox="0 0 413.8 78" style="enable-background:new 0 0 413.8 78;" xml:space="preserve">
 <style type="text/css">
  .st0{fill:#FA3235;}
 </style>
 <metadata>
  <sfw xmlns="ns_sfw;">
   <slices>
   </slices>
   <sliceSourceBounds bottomLeftOrigin="true" height="78" width="413.8" x="-6.9" y="-239">
   </sliceSourceBounds>
  </sfw>
 </metadata>
 <g id="Wynklogo-Horiz-big" transform="translate(-121.016 -1069.939)">
  <g id="Horiz-long-colour-trans" transform="translate(121.016 1069.939)">
   <path id="MUSIC" d="M243.3,33.1v30.5c0.1,0.7-0.2,1.4-0.7,1.8c-0.5,0.4-1.2,0.5-1.8,0.5c-0.6,0-1.3-0.1-1.8-0.5
			c-0.5-0.5-0.7-1.1-0.7-1.8V26.8c-0.1-0.9,0.2-1.8,0.9-2.4c1.5-0.9,3.3-0.9,4.9-0.1c0.6,0.4,1,1,1.2,1.7L259,59.3L272.6,26
			c0.2-0.7,0.7-1.2,1.2-1.7c1.5-0.8,3.3-0.8,4.7,0.1c0.6,0.6,0.9,1.5,0.8,2.4v36.7c0.1,0.7-0.2,1.3-0.7,1.8
			c-0.5,0.4-1.2,0.5-1.8,0.5c-0.7,0-1.3-0.1-1.8-0.5c-0.5-0.5-0.7-1.1-0.7-1.8V33l-12.6,30.4c-0.2,0.6-0.6,1-1,1.4
			c-1.2,0.8-2.7,0.8-3.8,0c-0.5-0.4-0.8-0.9-1-1.4L243.3,33.1z M315.9,26.2c-0.1-0.7,0.2-1.4,0.7-1.9c0.6-0.4,1.2-0.6,1.9-0.5
			c0.7,0,1.4,0.1,1.9,0.5c0.5,0.5,0.8,1.2,0.7,1.9v24.2c0,2.2-0.3,4.4-1,6.5c-0.7,1.9-1.7,3.6-3.1,5.1c-1.4,1.5-3.2,2.6-5.1,3.3
			c-2.2,0.8-4.6,1.2-7,1.2c-2.4,0-4.7-0.4-7-1.2c-1.9-0.7-3.6-1.9-5-3.3c-1.4-1.4-2.4-3.2-3.1-5.1c-0.7-2.1-1.1-4.3-1-6.5V26.2
			c-0.1-0.7,0.2-1.4,0.7-1.9c0.6-0.4,1.2-0.6,1.9-0.5c0.7,0,1.3,0.1,1.9,0.5c0.5,0.5,0.7,1.2,0.7,1.9V50c-0.3,3.2,0.8,6.4,2.9,8.9
			c4.7,3.9,11.5,3.9,16.2,0c2.1-2.5,3.1-5.7,2.9-8.9L315.9,26.2z M348.1,43.1c2.8,0.7,5.4,2.2,7.4,4.2c1.7,2,2.5,4.6,2.4,7.2
			c0.1,1.9-0.3,3.7-1.1,5.4c-0.7,1.5-1.8,2.7-3,3.8c-1.3,1-2.8,1.7-4.4,2.2c-1.7,0.5-3.4,0.7-5.1,0.7c-2.8,0-5.7-0.4-8.4-1.3
			c-2.6-0.8-4.9-2.3-6.8-4.3c-0.4-0.4-0.7-0.9-0.9-1.4c-0.1-0.3-0.1-0.7-0.1-1c0-0.7,0.3-1.3,0.9-1.7c0.5-0.5,1.1-0.8,1.8-0.8
			c0.3,0,0.7,0.2,0.9,0.4c0.3,0.2,0.5,0.4,0.8,0.7c1.5,1.7,3.4,3.1,5.5,4c2,0.7,4.1,1.1,6.2,1c2.2,0.1,4.3-0.5,6.1-1.8
			c1.6-1.2,2.5-3.1,2.4-5.2c0.1-1.7-0.5-3.4-1.7-4.7c-1.7-1.4-3.6-2.4-5.8-2.9l-5.1-1.5c-3-0.7-5.8-2.1-8.1-4.2
			c-1.9-2-2.8-4.6-2.7-7.3c0-1.8,0.4-3.6,1.3-5.1c0.8-1.4,1.9-2.6,3.3-3.5c1.3-0.9,2.8-1.6,4.4-2.1c1.6-0.4,3.2-0.6,4.8-0.7
			c2.6,0,5.1,0.4,7.5,1.4c2.4,0.9,4.4,2.5,6,4.5c0.3,0.3,0.5,0.7,0.7,1.1c0.1,0.3,0.2,0.6,0.2,1c0,0.6-0.3,1.3-0.8,1.7
			c-0.4,0.4-1,0.6-1.6,0.7c-0.4,0-0.8-0.1-1.1-0.3c-0.4-0.3-0.8-0.6-1.1-0.9c-1.2-1.5-2.8-2.7-4.5-3.6c-1.7-0.7-3.5-1.1-5.3-1.1
			c-1.1,0-2.1,0.1-3.1,0.4c-1,0.3-1.9,0.7-2.7,1.3c-0.8,0.6-1.4,1.3-1.9,2.1c-0.5,0.9-0.7,1.9-0.7,2.9c0,0.7,0.1,1.4,0.3,2.1
			c0.2,0.7,0.6,1.3,1.1,1.8c0.6,0.6,1.4,1.2,2.2,1.5c1.1,0.6,2.3,1,3.5,1.4L348.1,43.1z M365.6,26.2c-0.1-0.7,0.2-1.4,0.7-1.9
			c1.2-0.7,2.6-0.7,3.8,0c0.5,0.5,0.7,1.2,0.7,1.9v37.3c0.1,0.7-0.2,1.4-0.7,1.9c-1.2,0.7-2.6,0.7-3.8,0c-0.5-0.5-0.7-1.2-0.7-1.9
			V26.2z M408.8,54.6c0.3-0.5,0.6-1,1-1.4c0.3-0.3,0.8-0.5,1.3-0.4c0.6,0,1.2,0.2,1.7,0.5c0.6,0.4,1,1.1,0.9,1.8
			c-0.1,1-0.4,2-0.9,2.8c-0.6,1-1.2,2-2,2.9c-0.3,0.3-0.7,0.8-1.4,1.5c-0.8,0.8-1.7,1.4-2.7,1.9c-1.2,0.7-2.6,1.3-3.9,1.7
			c-1.7,0.5-3.5,0.7-5.2,0.7c-2.7,0-5.4-0.5-7.8-1.5c-2.3-1-4.4-2.5-6-4.3c-1.7-2-3.1-4.3-3.9-6.8c-1.8-5.8-1.8-12.1,0-17.9
			c0.8-2.5,2.1-4.8,3.9-6.8c1.7-1.9,3.7-3.4,6-4.4c2.5-1.1,5.1-1.6,7.8-1.5c1.7,0,3.4,0.2,5.1,0.7c1.3,0.4,2.6,0.9,3.8,1.5
			c0.9,0.5,1.8,1.1,2.6,1.8c0.7,0.6,1.1,1.1,1.5,1.5c0.7,0.9,1.4,1.9,2,2.9c0.6,0.8,0.9,1.8,1,2.8c0.1,0.7-0.3,1.4-1,1.8
			c-0.5,0.3-1.2,0.5-1.8,0.5c-0.5,0-0.9-0.1-1.3-0.4c-0.4-0.4-0.7-0.8-0.9-1.2c-0.5-0.8-1-1.7-1.6-2.4c-0.6-0.8-1.4-1.6-2.2-2.2
			c-0.9-0.7-1.9-1.3-3-1.7c-1.3-0.5-2.7-0.7-4.1-0.7c-2,0-4,0.4-5.9,1.3c-1.7,0.8-3.1,2-4.3,3.5c-1.2,1.6-2.1,3.4-2.6,5.4
			c-1.2,4.5-1.2,9.2,0,13.7c0.5,1.9,1.4,3.8,2.6,5.4c1.1,1.5,2.6,2.7,4.3,3.5c1.8,0.9,3.8,1.3,5.9,1.3c1.5,0,3-0.2,4.5-0.7
			c2.1-0.8,4-2.3,5.2-4.2C408,56,408.5,55.2,408.8,54.6L408.8,54.6z">
   </path>
   <path id="WYNK" class="st0" d="M78.7,29.8c-0.2-0.7-0.3-1.5-0.4-2.3c0-0.9,0.4-1.9,1.1-2.5c0.9-0.6,1.9-1,3-0.9
			c0.9-0.1,1.9,0.2,2.7,0.7c0.6,0.6,1,1.3,1.1,2.1L92.6,56l6.2-28.8c0.1-1.1,0.7-2,1.7-2.5c0.8-0.4,1.8-0.6,2.7-0.6
			c0.9,0,1.8,0.2,2.5,0.7c0.9,0.6,1.4,1.5,1.6,2.6l6.3,28.6l6.5-29.3c0.3-1.6,1.8-2.8,3.4-2.6c1.1-0.1,2.1,0.3,2.9,1
			c0.7,0.6,1,1.5,1,2.4c0,0.8-0.1,1.6-0.4,2.3l-8.9,33.7c-0.2,1-0.9,1.8-1.7,2.3c-0.9,0.4-1.9,0.7-2.9,0.7c-1.1,0.1-2.3-0.2-3.3-0.8
			c-0.8-0.6-1.3-1.4-1.5-2.3L102.9,37l-6,26.4c-0.1,1-0.7,1.8-1.6,2.3c-0.9,0.5-1.9,0.7-2.9,0.7c-1.1,0.1-2.3-0.2-3.2-0.9
			c-0.7-0.6-1.3-1.4-1.5-2.4L78.7,29.8z M140.6,47.9l-11.2-17.7c-0.5-0.8-0.8-1.7-0.8-2.6c-0.1-1.8,1.3-3.4,3.1-3.5
			c0.2,0,0.4,0,0.6,0c0.8-0.1,1.7,0.2,2.4,0.7c0.5,0.5,1,1.1,1.4,1.7l8.6,14.3l8.4-13.7c0.4-0.7,0.9-1.4,1.5-2.1
			c0.6-0.6,1.5-1,2.4-0.9c1,0,1.9,0.3,2.7,0.8c0.7,0.5,1.1,1.4,1.1,2.3c0,0.4-0.1,0.9-0.2,1.3c-0.1,0.5-0.3,0.9-0.6,1.3l-11.7,18.1
			V63c0,0.9-0.3,1.7-0.8,2.4c-0.7,0.8-1.8,1.2-2.9,1c-2.6,0-3.8-1.2-3.8-3.5L140.6,47.9z M164.8,28c-0.1-1.1,0.3-2.2,1.1-3
			c0.8-0.6,1.8-1,2.8-0.9c0.8,0,1.5,0.2,2.2,0.5c0.9,0.5,1.6,1.3,2,2.2l15.2,26.3V27.6c-0.1-1,0.2-2,1-2.7c0.8-0.6,1.7-0.8,2.7-0.8
			c1,0,1.9,0.2,2.7,0.8c0.7,0.7,1.1,1.7,1,2.7v35c0,0.5,0,0.9-0.1,1.3c-0.1,0.4-0.2,0.9-0.5,1.2c-0.3,0.4-0.6,0.7-1.1,0.9
			c-0.6,0.3-1.3,0.4-2,0.4c-1.7,0-3.3-1-4.1-2.5l-15.5-25.2V63c0,0.9-0.2,1.7-0.7,2.5c-0.7,0.8-1.8,1.2-2.9,1.1
			c-1,0.1-2.1-0.2-2.9-0.8c-0.7-0.7-1-1.7-0.9-2.7L164.8,28z M203.3,27.5c-0.1-1,0.3-1.9,1-2.6c0.8-0.6,1.8-0.8,2.8-0.8
			c0.9,0,1.9,0.2,2.7,0.8c0.7,0.6,1.1,1.6,1,2.6V42l13.5-15.7c0.5-0.5,1-1,1.5-1.5c0.6-0.4,1.2-0.7,2-0.7c0.5,0,1,0.1,1.4,0.3
			c0.4,0.2,0.8,0.4,1.1,0.7c0.3,0.3,0.6,0.7,0.9,1.2c0.2,0.5,0.3,1,0.3,1.5c0,0.5-0.1,1-0.4,1.4c-0.2,0.5-0.6,1-1,1.4l-9.5,10.9
			L232.7,61c0.4,0.6,0.5,1.2,0.5,1.9c0,1-0.3,1.9-1,2.6c-0.8,0.8-1.8,1.2-2.9,1.1c-0.8,0-1.5-0.2-2.1-0.7c-0.6-0.5-1.1-1.1-1.5-1.8
			l-10.6-17l-4.4,5V63c0,0.9-0.3,1.7-0.8,2.5c-0.7,0.8-1.8,1.2-2.9,1.1c-1,0.1-2.1-0.2-2.9-0.8c-0.7-0.7-1-1.7-0.9-2.7L203.3,27.5z">
   </path>
   <g id="wynk-logo">
    <g id="Group_469">
     <path id="Fill-4" class="st0" d="M58.5,22.4l-0.4,3.7c11.4,10.4,12.2,28.2,1.8,39.6c-10.4,11.4-28.2,12.2-39.6,1.8
					C8.9,57,8.1,39.3,18.5,27.9c5.3-5.8,12.8-9.1,20.7-9.1c2.9,0,5.8,0.5,8.5,1.3l0.3-3.1c-2.9-0.9-5.9-1.3-9-1.3
					c-17.2-0.1-31.2,13.8-31.3,31c0,0,0,0,0,0.1C8.1,64,22.1,77.8,39.3,78c17.2-0.1,31.1-14,31.2-31.2
					C70.5,37.2,66.1,28.2,58.5,22.4">
     </path>
     <path id="Fill-6" class="st0" d="M57.3,33.1l-0.7,6.1c1.2,2.5,1.8,5.2,1.8,7.9c-0.2,10.5-8.7,19.1-19.2,19.2
					C28.6,66.2,20,57.6,20,47c0.2-10.5,8.7-19.1,19.2-19.2c2.6,0,5.1,0.5,7.5,1.6l0.4-3.9c-2.5-1-5.2-1.5-8-1.5
					c-12.6,0.1-22.8,10.4-22.7,23s10.4,22.8,23,22.7C52,69.6,62.2,59.4,62.2,46.8C62.1,41.8,60.4,37,57.3,33.1">
     </path>
     <path id="Fill-1" class="st0" d="M2.8,45.8c-0.1-20,16-36.2,36-36.4h0.3V6.8h-0.3C17.4,6.9,0,24.3,0,45.7L2.8,45.8z">
     </path>
     <path id="Fill-8" class="st0" d="M53.1,0l-4.4,39.6c-3.5-2.7-8.1-3.5-12.4-2.2c-6.8,2-7.4,7.2-7.4,8.4c0,2.3,1.7,8.6,10,9.9
					c10,1.3,12.6-4.8,13-6.9c0.5-2.1,3-24.9,3-24.9l1.3-12.5c0,0,7-0.3,10.4,3c2.2,2.5,2.8,6,1.5,9.1c-0.5,1.4-1.6,2.8-0.2,2.3
					c2.1-1.3,3.5-3.4,4.1-5.8c0.3-3.8-1.4-7.4-4.4-9.6c-0.7-0.7-6.3-4-7.3-5c-1.3-1.2-2.2-2.8-2.4-4.6L53.1,0z">
     </path>
    </g>
   </g>
  </g>
 </g>
</svg>